# xmcd
#
# Track frame offsets:
#	150
#	16851
#	30090
#	44454
#	61396
#	74205
#	91261
#	112169
#	132869
#	148901
#	165701
#	179890
#	193770
#	207923
#
# Disc length: 2934 seconds
#
# Revision: 0
# Processed by: cddbd v1.5.2PL0 Copyright (c) Steve Scherf et al.
# Submitted via: EasyCDDAExtractor 15.2.0.1
#
DISCID=d50b740e
DTITLE=Padre Zezinho, SCJ - Fez a Paz Acontecer
DYEAR=2013
DGENRE=Religiosa
TTITLE0=Fez a paz acontecer
TTITLE1=Viemos como quem caminha
TTITLE2=Juntamos as nossas mãos
TTITLE3=Tua palavra nos encanta
TTITLE4=Alelu
TTITLE5=Graça de Deus benfazeja
TTITLE6=A palavra que viemos partilhar
TTITLE7=Arar os campos
TTITLE8=Maior do que tudo
TTITLE9=Onde a terra encontra o céu
TTITLE10=Digno de louvor
TTITLE11=Gosto de poder contemplar
TTITLE12=Mais sobre ele
TTITLE13=Com pandeiros e guitarras
EXTD=
EXTT0=
EXTT1=
EXTT2=
EXTT3=
EXTT4=
EXTT5=
EXTT6=
EXTT7=
EXTT8=
EXTT9=
EXTT10=
EXTT11=
EXTT12=
EXTT13=
PLAYORDER=
